<?xml version="1.0" encoding="utf-8" standalone="no"?>
<!DOCTYPE svg PUBLIC "-//W3C//DTD SVG 1.1//EN"
  "http://www.w3.org/Graphics/SVG/1.1/DTD/svg11.dtd">
<svg xmlns:xlink="http://www.w3.org/1999/xlink" width="432pt" height="288pt" viewBox="0 0 432 288" xmlns="http://www.w3.org/2000/svg" version="1.1">
 <metadata>
  <rdf:RDF xmlns:dc="http://purl.org/dc/elements/1.1/" xmlns:cc="http://creativecommons.org/ns#" xmlns:rdf="http://www.w3.org/1999/02/22-rdf-syntax-ns#">
   <cc:Work>
    <dc:type rdf:resource="http://purl.org/dc/dcmitype/StillImage"/>
    <dc:date>2023-10-29T07:57:47.712450</dc:date>
    <dc:format>image/svg+xml</dc:format>
    <dc:creator>
     <cc:Agent>
      <dc:title>Matplotlib v3.8.0, https://matplotlib.org/</dc:title>
     </cc:Agent>
    </dc:creator>
   </cc:Work>
  </rdf:RDF>
 </metadata>
 <defs>
  <style type="text/css">*{stroke-linejoin: round; stroke-linecap: butt}</style>
 </defs>
 <g id="figure_1">
  <g id="patch_1">
   <path d="M 0 288 
L 432 288 
L 432 0 
L 0 0 
z
" style="fill: #ffffff"/>
  </g>
  <g id="axes_1">
   <g id="patch_2">
    <path d="M 62.39 246.04 
L 413.28 246.04 
L 413.28 10.8 
L 62.39 10.8 
z
" style="fill: #ffffff"/>
   </g>
   <g id="matplotlib.axis_1">
    <g id="xtick_1">
     <g id="line2d_1">
      <path d="M 62.39 246.04 
L 62.39 10.8 
" clip-path="url(#p020701541f)" style="fill: none; stroke: #d3d3d3; stroke-width: 0.8; stroke-linecap: square"/>
     </g>
     <g id="line2d_2">
      <defs>
       <path id="m6796108926" d="M 0 0 
L 0 3.5 
" style="stroke: #000000; stroke-width: 0.8"/>
      </defs>
      <g>
       <use xlink:href="#m6796108926" x="62.39" y="246.04" style="stroke: #000000; stroke-width: 0.8"/>
      </g>
     </g>
     <g id="text_1">
      <!-- 0.0 -->
      <g transform="translate(54.438438 260.638438) scale(0.1 -0.1)">
       <defs>
        <path id="DejaVuSans-30" d="M 2034 4250 
Q 1547 4250 1301 3770 
Q 1056 3291 1056 2328 
Q 1056 1369 1301 889 
Q 1547 409 2034 409 
Q 2525 409 2770 889 
Q 3016 1369 3016 2328 
Q 3016 3291 2770 3770 
Q 2525 4250 2034 4250 
z
M 2034 4750 
Q 2819 4750 3233 4129 
Q 3647 3509 3647 2328 
Q 3647 1150 3233 529 
Q 2819 -91 2034 -91 
Q 1250 -91 836 529 
Q 422 1150 422 2328 
Q 422 3509 836 4129 
Q 1250 4750 2034 4750 
z
" transform="scale(0.015625)"/>
        <path id="DejaVuSans-2e" d="M 684 794 
L 1344 794 
L 1344 0 
L 684 0 
L 684 794 
z
" transform="scale(0.015625)"/>
       </defs>
       <use xlink:href="#DejaVuSans-30"/>
       <use xlink:href="#DejaVuSans-2e" x="63.623047"/>
       <use xlink:href="#DejaVuSans-30" x="95.410156"/>
      </g>
     </g>
    </g>
    <g id="xtick_2">
     <g id="line2d_3">
      <path d="M 132.568 246.04 
L 132.568 10.8 
" clip-path="url(#p020701541f)" style="fill: none; stroke: #d3d3d3; stroke-width: 0.8; stroke-linecap: square"/>
     </g>
     <g id="line2d_4">
      <g>
       <use xlink:href="#m6796108926" x="132.568" y="246.04" style="stroke: #000000; stroke-width: 0.8"/>
      </g>
     </g>
     <g id="text_2">
      <!-- 0.2 -->
      <g transform="translate(124.616438 260.638438) scale(0.1 -0.1)">
       <defs>
        <path id="DejaVuSans-32" d="M 1228 531 
L 3431 531 
L 3431 0 
L 469 0 
L 469 531 
Q 828 903 1448 1529 
Q 2069 2156 2228 2338 
Q 2531 2678 2651 2914 
Q 2772 3150 2772 3378 
Q 2772 3750 2511 3984 
Q 2250 4219 1831 4219 
Q 1534 4219 1204 4116 
Q 875 4013 500 3803 
L 500 4441 
Q 881 4594 1212 4672 
Q 1544 4750 1819 4750 
Q 2544 4750 2975 4387 
Q 3406 4025 3406 3419 
Q 3406 3131 3298 2873 
Q 3191 2616 2906 2266 
Q 2828 2175 2409 1742 
Q 1991 1309 1228 531 
z
" transform="scale(0.015625)"/>
       </defs>
       <use xlink:href="#DejaVuSans-30"/>
       <use xlink:href="#DejaVuSans-2e" x="63.623047"/>
       <use xlink:href="#DejaVuSans-32" x="95.410156"/>
      </g>
     </g>
    </g>
    <g id="xtick_3">
     <g id="line2d_5">
      <path d="M 202.746 246.04 
L 202.746 10.8 
" clip-path="url(#p020701541f)" style="fill: none; stroke: #d3d3d3; stroke-width: 0.8; stroke-linecap: square"/>
     </g>
     <g id="line2d_6">
      <g>
       <use xlink:href="#m6796108926" x="202.746" y="246.04" style="stroke: #000000; stroke-width: 0.8"/>
      </g>
     </g>
     <g id="text_3">
      <!-- 0.4 -->
      <g transform="translate(194.794438 260.638438) scale(0.1 -0.1)">
       <defs>
        <path id="DejaVuSans-34" d="M 2419 4116 
L 825 1625 
L 2419 1625 
L 2419 4116 
z
M 2253 4666 
L 3047 4666 
L 3047 1625 
L 3713 1625 
L 3713 1100 
L 3047 1100 
L 3047 0 
L 2419 0 
L 2419 1100 
L 313 1100 
L 313 1709 
L 2253 4666 
z
" transform="scale(0.015625)"/>
       </defs>
       <use xlink:href="#DejaVuSans-30"/>
       <use xlink:href="#DejaVuSans-2e" x="63.623047"/>
       <use xlink:href="#DejaVuSans-34" x="95.410156"/>
      </g>
     </g>
    </g>
    <g id="xtick_4">
     <g id="line2d_7">
      <path d="M 272.924 246.04 
L 272.924 10.8 
" clip-path="url(#p020701541f)" style="fill: none; stroke: #d3d3d3; stroke-width: 0.8; stroke-linecap: square"/>
     </g>
     <g id="line2d_8">
      <g>
       <use xlink:href="#m6796108926" x="272.924" y="246.04" style="stroke: #000000; stroke-width: 0.8"/>
      </g>
     </g>
     <g id="text_4">
      <!-- 0.6 -->
      <g transform="translate(264.972438 260.638438) scale(0.1 -0.1)">
       <defs>
        <path id="DejaVuSans-36" d="M 2113 2584 
Q 1688 2584 1439 2293 
Q 1191 2003 1191 1497 
Q 1191 994 1439 701 
Q 1688 409 2113 409 
Q 2538 409 2786 701 
Q 3034 994 3034 1497 
Q 3034 2003 2786 2293 
Q 2538 2584 2113 2584 
z
M 3366 4563 
L 3366 3988 
Q 3128 4100 2886 4159 
Q 2644 4219 2406 4219 
Q 1781 4219 1451 3797 
Q 1122 3375 1075 2522 
Q 1259 2794 1537 2939 
Q 1816 3084 2150 3084 
Q 2853 3084 3261 2657 
Q 3669 2231 3669 1497 
Q 3669 778 3244 343 
Q 2819 -91 2113 -91 
Q 1303 -91 875 529 
Q 447 1150 447 2328 
Q 447 3434 972 4092 
Q 1497 4750 2381 4750 
Q 2619 4750 2861 4703 
Q 3103 4656 3366 4563 
z
" transform="scale(0.015625)"/>
       </defs>
       <use xlink:href="#DejaVuSans-30"/>
       <use xlink:href="#DejaVuSans-2e" x="63.623047"/>
       <use xlink:href="#DejaVuSans-36" x="95.410156"/>
      </g>
     </g>
    </g>
    <g id="xtick_5">
     <g id="line2d_9">
      <path d="M 343.102 246.04 
L 343.102 10.8 
" clip-path="url(#p020701541f)" style="fill: none; stroke: #d3d3d3; stroke-width: 0.8; stroke-linecap: square"/>
     </g>
     <g id="line2d_10">
      <g>
       <use xlink:href="#m6796108926" x="343.102" y="246.04" style="stroke: #000000; stroke-width: 0.8"/>
      </g>
     </g>
     <g id="text_5">
      <!-- 0.8 -->
      <g transform="translate(335.150437 260.638438) scale(0.1 -0.1)">
       <defs>
        <path id="DejaVuSans-38" d="M 2034 2216 
Q 1584 2216 1326 1975 
Q 1069 1734 1069 1313 
Q 1069 891 1326 650 
Q 1584 409 2034 409 
Q 2484 409 2743 651 
Q 3003 894 3003 1313 
Q 3003 1734 2745 1975 
Q 2488 2216 2034 2216 
z
M 1403 2484 
Q 997 2584 770 2862 
Q 544 3141 544 3541 
Q 544 4100 942 4425 
Q 1341 4750 2034 4750 
Q 2731 4750 3128 4425 
Q 3525 4100 3525 3541 
Q 3525 3141 3298 2862 
Q 3072 2584 2669 2484 
Q 3125 2378 3379 2068 
Q 3634 1759 3634 1313 
Q 3634 634 3220 271 
Q 2806 -91 2034 -91 
Q 1263 -91 848 271 
Q 434 634 434 1313 
Q 434 1759 690 2068 
Q 947 2378 1403 2484 
z
M 1172 3481 
Q 1172 3119 1398 2916 
Q 1625 2713 2034 2713 
Q 2441 2713 2670 2916 
Q 2900 3119 2900 3481 
Q 2900 3844 2670 4047 
Q 2441 4250 2034 4250 
Q 1625 4250 1398 4047 
Q 1172 3844 1172 3481 
z
" transform="scale(0.015625)"/>
       </defs>
       <use xlink:href="#DejaVuSans-30"/>
       <use xlink:href="#DejaVuSans-2e" x="63.623047"/>
       <use xlink:href="#DejaVuSans-38" x="95.410156"/>
      </g>
     </g>
    </g>
    <g id="xtick_6">
     <g id="line2d_11">
      <path d="M 413.28 246.04 
L 413.28 10.8 
" clip-path="url(#p020701541f)" style="fill: none; stroke: #d3d3d3; stroke-width: 0.8; stroke-linecap: square"/>
     </g>
     <g id="line2d_12">
      <g>
       <use xlink:href="#m6796108926" x="413.28" y="246.04" style="stroke: #000000; stroke-width: 0.8"/>
      </g>
     </g>
     <g id="text_6">
      <!-- 1.0 -->
      <g transform="translate(405.328437 260.638438) scale(0.1 -0.1)">
       <defs>
        <path id="DejaVuSans-31" d="M 794 531 
L 1825 531 
L 1825 4091 
L 703 3866 
L 703 4441 
L 1819 4666 
L 2450 4666 
L 2450 531 
L 3481 531 
L 3481 0 
L 794 0 
L 794 531 
z
" transform="scale(0.015625)"/>
       </defs>
       <use xlink:href="#DejaVuSans-31"/>
       <use xlink:href="#DejaVuSans-2e" x="63.623047"/>
       <use xlink:href="#DejaVuSans-30" x="95.410156"/>
      </g>
     </g>
    </g>
    <g id="text_7">
     <!-- x -->
     <g transform="translate(234.875625 274.316562) scale(0.1 -0.1)">
      <defs>
       <path id="DejaVuSans-78" d="M 3513 3500 
L 2247 1797 
L 3578 0 
L 2900 0 
L 1881 1375 
L 863 0 
L 184 0 
L 1544 1831 
L 300 3500 
L 978 3500 
L 1906 2253 
L 2834 3500 
L 3513 3500 
z
" transform="scale(0.015625)"/>
      </defs>
      <use xlink:href="#DejaVuSans-78"/>
     </g>
    </g>
   </g>
   <g id="matplotlib.axis_2">
    <g id="ytick_1">
     <g id="line2d_13">
      <path d="M 62.39 235.347273 
L 413.28 235.347273 
" clip-path="url(#p020701541f)" style="fill: none; stroke: #d3d3d3; stroke-width: 0.8; stroke-linecap: square"/>
     </g>
     <g id="line2d_14">
      <defs>
       <path id="m60ed8b9f30" d="M 0 0 
L -3.5 0 
" style="stroke: #000000; stroke-width: 0.8"/>
      </defs>
      <g>
       <use xlink:href="#m60ed8b9f30" x="62.39" y="235.347273" style="stroke: #000000; stroke-width: 0.8"/>
      </g>
     </g>
     <g id="text_8">
      <!-- −1.00 -->
      <g transform="translate(24.744688 239.146491) scale(0.1 -0.1)">
       <defs>
        <path id="DejaVuSans-2212" d="M 678 2272 
L 4684 2272 
L 4684 1741 
L 678 1741 
L 678 2272 
z
" transform="scale(0.015625)"/>
       </defs>
       <use xlink:href="#DejaVuSans-2212"/>
       <use xlink:href="#DejaVuSans-31" x="83.789062"/>
       <use xlink:href="#DejaVuSans-2e" x="147.412109"/>
       <use xlink:href="#DejaVuSans-30" x="179.199219"/>
       <use xlink:href="#DejaVuSans-30" x="242.822266"/>
      </g>
     </g>
    </g>
    <g id="ytick_2">
     <g id="line2d_15">
      <path d="M 62.39 208.615388 
L 413.28 208.615388 
" clip-path="url(#p020701541f)" style="fill: none; stroke: #d3d3d3; stroke-width: 0.8; stroke-linecap: square"/>
     </g>
     <g id="line2d_16">
      <g>
       <use xlink:href="#m60ed8b9f30" x="62.39" y="208.615388" style="stroke: #000000; stroke-width: 0.8"/>
      </g>
     </g>
     <g id="text_9">
      <!-- −0.75 -->
      <g transform="translate(24.744688 212.414607) scale(0.1 -0.1)">
       <defs>
        <path id="DejaVuSans-37" d="M 525 4666 
L 3525 4666 
L 3525 4397 
L 1831 0 
L 1172 0 
L 2766 4134 
L 525 4134 
L 525 4666 
z
" transform="scale(0.015625)"/>
        <path id="DejaVuSans-35" d="M 691 4666 
L 3169 4666 
L 3169 4134 
L 1269 4134 
L 1269 2991 
Q 1406 3038 1543 3061 
Q 1681 3084 1819 3084 
Q 2600 3084 3056 2656 
Q 3513 2228 3513 1497 
Q 3513 744 3044 326 
Q 2575 -91 1722 -91 
Q 1428 -91 1123 -41 
Q 819 9 494 109 
L 494 744 
Q 775 591 1075 516 
Q 1375 441 1709 441 
Q 2250 441 2565 725 
Q 2881 1009 2881 1497 
Q 2881 1984 2565 2268 
Q 2250 2553 1709 2553 
Q 1456 2553 1204 2497 
Q 953 2441 691 2322 
L 691 4666 
z
" transform="scale(0.015625)"/>
       </defs>
       <use xlink:href="#DejaVuSans-2212"/>
       <use xlink:href="#DejaVuSans-30" x="83.789062"/>
       <use xlink:href="#DejaVuSans-2e" x="147.412109"/>
       <use xlink:href="#DejaVuSans-37" x="179.199219"/>
       <use xlink:href="#DejaVuSans-35" x="242.822266"/>
      </g>
     </g>
    </g>
    <g id="ytick_3">
     <g id="line2d_17">
      <path d="M 62.39 181.883504 
L 413.28 181.883504 
" clip-path="url(#p020701541f)" style="fill: none; stroke: #d3d3d3; stroke-width: 0.8; stroke-linecap: square"/>
     </g>
     <g id="line2d_18">
      <g>
       <use xlink:href="#m60ed8b9f30" x="62.39" y="181.883504" style="stroke: #000000; stroke-width: 0.8"/>
      </g>
     </g>
     <g id="text_10">
      <!-- −0.50 -->
      <g transform="translate(24.744688 185.682723) scale(0.1 -0.1)">
       <use xlink:href="#DejaVuSans-2212"/>
       <use xlink:href="#DejaVuSans-30" x="83.789062"/>
       <use xlink:href="#DejaVuSans-2e" x="147.412109"/>
       <use xlink:href="#DejaVuSans-35" x="179.199219"/>
       <use xlink:href="#DejaVuSans-30" x="242.822266"/>
      </g>
     </g>
    </g>
    <g id="ytick_4">
     <g id="line2d_19">
      <path d="M 62.39 155.15162 
L 413.28 155.15162 
" clip-path="url(#p020701541f)" style="fill: none; stroke: #d3d3d3; stroke-width: 0.8; stroke-linecap: square"/>
     </g>
     <g id="line2d_20">
      <g>
       <use xlink:href="#m60ed8b9f30" x="62.39" y="155.15162" style="stroke: #000000; stroke-width: 0.8"/>
      </g>
     </g>
     <g id="text_11">
      <!-- −0.25 -->
      <g transform="translate(24.744688 158.950839) scale(0.1 -0.1)">
       <use xlink:href="#DejaVuSans-2212"/>
       <use xlink:href="#DejaVuSans-30" x="83.789062"/>
       <use xlink:href="#DejaVuSans-2e" x="147.412109"/>
       <use xlink:href="#DejaVuSans-32" x="179.199219"/>
       <use xlink:href="#DejaVuSans-35" x="242.822266"/>
      </g>
     </g>
    </g>
    <g id="ytick_5">
     <g id="line2d_21">
      <path d="M 62.39 128.419736 
L 413.28 128.419736 
" clip-path="url(#p020701541f)" style="fill: none; stroke: #d3d3d3; stroke-width: 0.8; stroke-linecap: square"/>
     </g>
     <g id="line2d_22">
      <g>
       <use xlink:href="#m60ed8b9f30" x="62.39" y="128.419736" style="stroke: #000000; stroke-width: 0.8"/>
      </g>
     </g>
     <g id="text_12">
      <!-- 0.00 -->
      <g transform="translate(33.124375 132.218954) scale(0.1 -0.1)">
       <use xlink:href="#DejaVuSans-30"/>
       <use xlink:href="#DejaVuSans-2e" x="63.623047"/>
       <use xlink:href="#DejaVuSans-30" x="95.410156"/>
       <use xlink:href="#DejaVuSans-30" x="159.033203"/>
      </g>
     </g>
    </g>
    <g id="ytick_6">
     <g id="line2d_23">
      <path d="M 62.39 101.687851 
L 413.28 101.687851 
" clip-path="url(#p020701541f)" style="fill: none; stroke: #d3d3d3; stroke-width: 0.8; stroke-linecap: square"/>
     </g>
     <g id="line2d_24">
      <g>
       <use xlink:href="#m60ed8b9f30" x="62.39" y="101.687851" style="stroke: #000000; stroke-width: 0.8"/>
      </g>
     </g>
     <g id="text_13">
      <!-- 0.25 -->
      <g transform="translate(33.124375 105.48707) scale(0.1 -0.1)">
       <use xlink:href="#DejaVuSans-30"/>
       <use xlink:href="#DejaVuSans-2e" x="63.623047"/>
       <use xlink:href="#DejaVuSans-32" x="95.410156"/>
       <use xlink:href="#DejaVuSans-35" x="159.033203"/>
      </g>
     </g>
    </g>
    <g id="ytick_7">
     <g id="line2d_25">
      <path d="M 62.39 74.955967 
L 413.28 74.955967 
" clip-path="url(#p020701541f)" style="fill: none; stroke: #d3d3d3; stroke-width: 0.8; stroke-linecap: square"/>
     </g>
     <g id="line2d_26">
      <g>
       <use xlink:href="#m60ed8b9f30" x="62.39" y="74.955967" style="stroke: #000000; stroke-width: 0.8"/>
      </g>
     </g>
     <g id="text_14">
      <!-- 0.50 -->
      <g transform="translate(33.124375 78.755186) scale(0.1 -0.1)">
       <use xlink:href="#DejaVuSans-30"/>
       <use xlink:href="#DejaVuSans-2e" x="63.623047"/>
       <use xlink:href="#DejaVuSans-35" x="95.410156"/>
       <use xlink:href="#DejaVuSans-30" x="159.033203"/>
      </g>
     </g>
    </g>
    <g id="ytick_8">
     <g id="line2d_27">
      <path d="M 62.39 48.224083 
L 413.28 48.224083 
" clip-path="url(#p020701541f)" style="fill: none; stroke: #d3d3d3; stroke-width: 0.8; stroke-linecap: square"/>
     </g>
     <g id="line2d_28">
      <g>
       <use xlink:href="#m60ed8b9f30" x="62.39" y="48.224083" style="stroke: #000000; stroke-width: 0.8"/>
      </g>
     </g>
     <g id="text_15">
      <!-- 0.75 -->
      <g transform="translate(33.124375 52.023301) scale(0.1 -0.1)">
       <use xlink:href="#DejaVuSans-30"/>
       <use xlink:href="#DejaVuSans-2e" x="63.623047"/>
       <use xlink:href="#DejaVuSans-37" x="95.410156"/>
       <use xlink:href="#DejaVuSans-35" x="159.033203"/>
      </g>
     </g>
    </g>
    <g id="ytick_9">
     <g id="line2d_29">
      <path d="M 62.39 21.492198 
L 413.28 21.492198 
" clip-path="url(#p020701541f)" style="fill: none; stroke: #d3d3d3; stroke-width: 0.8; stroke-linecap: square"/>
     </g>
     <g id="line2d_30">
      <g>
       <use xlink:href="#m60ed8b9f30" x="62.39" y="21.492198" style="stroke: #000000; stroke-width: 0.8"/>
      </g>
     </g>
     <g id="text_16">
      <!-- 1.00 -->
      <g transform="translate(33.124375 25.291417) scale(0.1 -0.1)">
       <use xlink:href="#DejaVuSans-31"/>
       <use xlink:href="#DejaVuSans-2e" x="63.623047"/>
       <use xlink:href="#DejaVuSans-30" x="95.410156"/>
       <use xlink:href="#DejaVuSans-30" x="159.033203"/>
      </g>
     </g>
    </g>
    <g id="text_17">
     <!-- u(t, x) -->
     <g transform="translate(18.665 143.587969) rotate(-90) scale(0.1 -0.1)">
      <defs>
       <path id="DejaVuSans-75" d="M 544 1381 
L 544 3500 
L 1119 3500 
L 1119 1403 
Q 1119 906 1312 657 
Q 1506 409 1894 409 
Q 2359 409 2629 706 
Q 2900 1003 2900 1516 
L 2900 3500 
L 3475 3500 
L 3475 0 
L 2900 0 
L 2900 538 
Q 2691 219 2414 64 
Q 2138 -91 1772 -91 
Q 1169 -91 856 284 
Q 544 659 544 1381 
z
M 1991 3584 
L 1991 3584 
z
" transform="scale(0.015625)"/>
       <path id="DejaVuSans-28" d="M 1984 4856 
Q 1566 4138 1362 3434 
Q 1159 2731 1159 2009 
Q 1159 1288 1364 580 
Q 1569 -128 1984 -844 
L 1484 -844 
Q 1016 -109 783 600 
Q 550 1309 550 2009 
Q 550 2706 781 3412 
Q 1013 4119 1484 4856 
L 1984 4856 
z
" transform="scale(0.015625)"/>
       <path id="DejaVuSans-74" d="M 1172 4494 
L 1172 3500 
L 2356 3500 
L 2356 3053 
L 1172 3053 
L 1172 1153 
Q 1172 725 1289 603 
Q 1406 481 1766 481 
L 2356 481 
L 2356 0 
L 1766 0 
Q 1100 0 847 248 
Q 594 497 594 1153 
L 594 3053 
L 172 3053 
L 172 3500 
L 594 3500 
L 594 4494 
L 1172 4494 
z
" transform="scale(0.015625)"/>
       <path id="DejaVuSans-2c" d="M 750 794 
L 1409 794 
L 1409 256 
L 897 -744 
L 494 -744 
L 750 256 
L 750 794 
z
" transform="scale(0.015625)"/>
       <path id="DejaVuSans-20" transform="scale(0.015625)"/>
       <path id="DejaVuSans-29" d="M 513 4856 
L 1013 4856 
Q 1481 4119 1714 3412 
Q 1947 2706 1947 2009 
Q 1947 1309 1714 600 
Q 1481 -109 1013 -844 
L 513 -844 
Q 928 -128 1133 580 
Q 1338 1288 1338 2009 
Q 1338 2731 1133 3434 
Q 928 4138 513 4856 
z
" transform="scale(0.015625)"/>
      </defs>
      <use xlink:href="#DejaVuSans-75"/>
      <use xlink:href="#DejaVuSans-28" x="63.378906"/>
      <use xlink:href="#DejaVuSans-74" x="102.392578"/>
      <use xlink:href="#DejaVuSans-2c" x="141.601562"/>
      <use xlink:href="#DejaVuSans-20" x="173.388672"/>
      <use xlink:href="#DejaVuSans-78" x="205.175781"/>
      <use xlink:href="#DejaVuSans-29" x="264.355469"/>
     </g>
    </g>
   </g>
   <g id="line2d_31">
    <path d="M 62.39 128.419736 
L 72.21492 100.528594 
L 77.478271 86.262189 
L 81.688951 75.441558 
L 85.54874 66.114078 
L 89.057642 58.212632 
L 92.21565 51.632259 
L 95.022771 46.245181 
L 97.829891 41.325035 
L 100.286121 37.424993 
L 102.742351 33.920852 
L 105.198583 30.827871 
L 107.303922 28.514239 
L 109.409261 26.520003 
L 111.5146 24.851523 
L 113.269054 23.713849 
L 115.023502 22.808651 
L 116.77795 22.137936 
L 118.532404 21.703195 
L 120.286852 21.505391 
L 122.041301 21.544963 
L 123.795754 21.821823 
L 125.550203 22.335358 
L 127.304651 23.084421 
L 129.059104 24.067362 
L 130.813553 25.281987 
L 132.918892 27.041537 
L 135.024236 29.125185 
L 137.129575 31.52626 
L 139.234914 34.237106 
L 141.691144 37.779627 
L 144.147374 41.716526 
L 146.954494 46.676684 
L 149.761615 52.101327 
L 152.919626 58.720781 
L 156.428522 66.661309 
L 159.937429 75.150059 
L 164.148108 85.953705 
L 169.060567 99.23369 
L 175.376589 117.020102 
L 190.815749 160.822588 
L 195.728209 173.947291 
L 199.938887 184.575377 
L 203.798679 193.690652 
L 207.307576 201.371439 
L 210.465587 207.732376 
L 213.272703 212.909076 
L 216.079828 217.605713 
L 218.536058 221.30038 
L 220.992288 224.590929 
L 223.097632 227.078879 
L 225.202966 229.251392 
L 227.30831 231.101583 
L 229.413644 232.623501 
L 231.168103 233.637468 
L 232.922551 234.417824 
L 234.676999 234.962837 
L 236.431448 235.271302 
L 238.185885 235.342525 
L 239.940334 235.176351 
L 241.694782 234.773159 
L 243.44923 234.133833 
L 245.203679 233.2598 
L 246.958127 232.152993 
L 248.712575 230.815871 
L 250.81793 228.911512 
L 252.923264 226.68591 
L 255.028598 224.146157 
L 257.484838 220.796934 
L 259.941057 217.045831 
L 262.397297 212.909076 
L 265.204423 207.732357 
L 268.011528 202.104996 
L 271.169539 195.275399 
L 274.678436 187.125442 
L 278.538239 177.56149 
L 282.748906 166.530005 
L 288.012272 152.072944 
L 295.731837 130.099313 
L 306.258547 100.20446 
L 311.521892 85.953702 
L 315.732581 75.150011 
L 319.592363 65.841412 
L 323.10126 57.95964 
L 326.259271 51.398879 
L 329.066397 46.030646 
L 331.873522 41.13057 
L 334.329742 37.249043 
L 336.785982 33.764131 
L 339.242201 30.691086 
L 341.347556 28.395 
L 343.45289 26.418705 
L 345.558223 24.768491 
L 347.312672 23.646253 
L 349.06712 22.756632 
L 350.821568 22.101608 
L 352.576017 21.682635 
L 354.330486 21.500643 
L 356.084934 21.55604 
L 357.839383 21.848706 
L 359.593831 22.377983 
L 361.348279 23.142699 
L 363.102728 24.141159 
L 364.857176 25.371144 
L 366.96251 27.148839 
L 369.067865 29.250314 
L 371.173198 31.668787 
L 373.278532 34.396606 
L 375.734772 37.958266 
L 378.190992 41.913521 
L 380.998117 46.893627 
L 383.805243 52.336983 
L 386.963254 58.975831 
L 390.472151 66.935823 
L 394.331933 76.319299 
L 398.542622 87.190195 
L 403.455081 100.528566 
L 410.121989 119.360733 
L 413.28 128.419738 
L 413.28 128.419738 
" clip-path="url(#p020701541f)" style="fill: none; stroke: #fde725; stroke-opacity: 0.8; stroke-width: 1.5; stroke-linecap: square"/>
   </g>
   <g id="line2d_32">
    <path d="M 62.39 128.419736 
L 72.21492 107.981313 
L 77.478271 97.526998 
L 82.039841 88.957982 
L 85.899631 82.16448 
L 89.408532 76.417781 
L 92.566541 71.639019 
L 95.724552 67.268558 
L 98.531673 63.751932 
L 101.338793 60.602763 
L 103.795023 58.162785 
L 106.25125 56.028494 
L 108.70748 54.209175 
L 110.812824 52.906482 
L 112.918163 51.845194 
L 115.023502 51.028713 
L 117.128841 50.45964 
L 119.23418 50.139805 
L 121.339524 50.070214 
L 123.444863 50.251104 
L 125.550203 50.681887 
L 127.655542 51.361187 
L 129.760881 52.286843 
L 131.866225 53.455887 
L 133.971564 54.864581 
L 136.427794 56.804905 
L 138.884023 59.056811 
L 141.340253 61.610515 
L 144.147374 64.884264 
L 146.954494 68.519034 
L 150.1125 73.013884 
L 153.270511 77.90715 
L 156.779418 83.768484 
L 160.6392 90.671595 
L 164.849889 98.661892 
L 170.113234 109.171989 
L 177.131038 123.745448 
L 189.763072 150.043797 
L 195.026427 160.439739 
L 199.237105 168.306042 
L 203.096898 175.071475 
L 206.605795 180.788937 
L 209.763806 185.538598 
L 212.921817 189.877543 
L 215.728932 193.364265 
L 218.536058 196.481987 
L 220.992288 198.893278 
L 223.448517 200.997959 
L 225.904747 202.786845 
L 228.010091 204.062904 
L 230.115425 205.097144 
L 232.22077 205.886244 
L 234.326103 206.427701 
L 236.431448 206.719774 
L 238.536771 206.761526 
L 240.642105 206.55283 
L 242.747459 206.094348 
L 244.852793 205.387559 
L 246.958127 204.434701 
L 249.063482 203.238826 
L 251.168816 201.803771 
L 253.625035 199.833396 
L 256.081275 197.552288 
L 258.537494 194.970433 
L 261.34462 191.665849 
L 264.151746 188.001896 
L 267.309757 183.476377 
L 270.467768 178.554966 
L 273.976665 172.665579 
L 277.836447 165.735748 
L 282.047135 157.721579 
L 287.31048 147.18987 
L 294.67918 131.864891 
L 306.609433 107.032415 
L 311.872778 96.624591 
L 316.083466 88.745506 
L 319.943249 81.966045 
L 323.452145 76.233925 
L 326.610156 71.469685 
L 329.768168 67.114953 
L 332.575293 63.613266 
L 335.382419 60.479801 
L 337.838638 58.054158 
L 340.294878 55.934652 
L 342.751098 54.13054 
L 344.856453 52.841149 
L 346.961786 51.793385 
L 349.06712 50.990594 
L 351.172475 50.435326 
L 353.277809 50.129366 
L 355.383142 50.073694 
L 357.488497 50.268484 
L 359.593831 50.713122 
L 361.699165 51.40617 
L 363.804499 52.345434 
L 365.909853 53.527906 
L 368.015187 54.949781 
L 370.471427 56.905127 
L 372.927647 59.17164 
L 375.383887 61.739474 
L 378.190992 65.028621 
L 380.998117 68.678005 
L 384.156128 73.188189 
L 387.31414 78.095579 
L 390.823036 83.970982 
L 394.682839 90.887522 
L 398.893507 98.889702 
L 404.156852 109.410666 
L 411.174666 123.991231 
L 413.28 128.419737 
L 413.28 128.419737 
" clip-path="url(#p020701541f)" style="fill: none; stroke: #7ad151; stroke-opacity: 0.8; stroke-width: 1.5; stroke-linecap: square"/>
   </g>
   <g id="line2d_33">
    <path d="M 62.39 128.419736 
L 72.56581 112.92086 
L 78.180051 104.791202 
L 82.741621 98.572608 
L 86.601412 93.656688 
L 90.110311 89.510302 
L 93.619211 85.70927 
L 96.777222 82.611586 
L 99.935233 79.843283 
L 102.742351 77.675248 
L 105.549471 75.795548 
L 108.005704 74.395779 
L 110.461933 73.23107 
L 112.918163 72.306477 
L 115.374393 71.62603 
L 117.830623 71.192685 
L 120.286852 71.008335 
L 122.743082 71.07377 
L 125.199312 71.388717 
L 127.655542 71.951799 
L 130.111771 72.760574 
L 132.568001 73.811512 
L 135.024236 75.100047 
L 137.480466 76.620572 
L 140.287586 78.633852 
L 143.094701 80.930018 
L 145.901822 83.496045 
L 149.059833 86.68715 
L 152.56873 90.583709 
L 156.077637 94.816101 
L 159.937429 99.814715 
L 164.498993 106.113762 
L 169.762348 113.791192 
L 176.780142 124.454411 
L 190.113968 144.785126 
L 195.377313 152.376613 
L 199.938887 158.574474 
L 203.798679 163.469241 
L 207.307576 167.593709 
L 210.816473 171.37048 
L 213.974484 174.444501 
L 217.132495 177.187583 
L 219.939621 179.332043 
L 222.746736 181.1872 
L 225.202966 182.564825 
L 227.659196 183.706877 
L 230.115425 184.608372 
L 232.571655 185.265397 
L 235.027885 185.67509 
L 237.484115 185.835674 
L 239.940334 185.74644 
L 242.396553 185.407791 
L 244.852793 184.821192 
L 247.309013 183.989185 
L 249.765253 182.915405 
L 252.221472 181.604522 
L 254.677712 180.062229 
L 257.484838 178.024908 
L 260.291943 175.705751 
L 263.449954 172.776221 
L 266.607965 169.527739 
L 270.116883 165.572701 
L 273.625779 161.287914 
L 277.485561 156.239256 
L 282.047135 149.891912 
L 287.31048 142.174353 
L 295.030066 130.403588 
L 306.609433 112.747263 
L 312.223684 104.626909 
L 316.785237 98.418688 
L 320.645041 93.513303 
L 324.153937 89.377844 
L 327.662834 85.588925 
L 330.820845 82.50305 
L 333.978856 79.747361 
L 336.785982 77.591091 
L 339.593087 75.723659 
L 342.049327 74.334945 
L 344.505567 73.181555 
L 346.961786 72.268511 
L 349.418027 71.599772 
L 351.874246 71.178249 
L 354.330486 71.005786 
L 356.786705 71.083114 
L 359.242946 71.409921 
L 361.699165 71.984762 
L 364.155405 72.805162 
L 366.611624 73.867528 
L 369.067865 75.167238 
L 371.524084 76.698652 
L 374.331209 78.723965 
L 377.138335 81.03166 
L 379.94544 83.608589 
L 383.103451 86.811221 
L 386.612369 90.719587 
L 390.121265 94.962545 
L 393.981047 99.971239 
L 398.542622 106.280088 
L 403.805966 113.965695 
L 411.174666 125.174559 
L 413.28 128.419737 
L 413.28 128.419737 
" clip-path="url(#p020701541f)" style="fill: none; stroke: #22a884; stroke-opacity: 0.8; stroke-width: 1.5; stroke-linecap: square"/>
   </g>
   <g id="line2d_34">
    <path d="M 62.39 128.419736 
L 72.9167 116.680949 
L 78.530941 110.744271 
L 83.443401 105.874369 
L 87.654082 102.009092 
L 91.513872 98.761238 
L 95.022771 96.084157 
L 98.531673 93.694093 
L 101.689681 91.806021 
L 104.847692 90.181221 
L 107.654813 88.967465 
L 110.461933 87.97789 
L 113.269054 87.21811 
L 116.076174 86.692447 
L 118.883295 86.403886 
L 121.690415 86.354068 
L 124.49753 86.543275 
L 127.304651 86.970431 
L 130.111771 87.633113 
L 132.918892 88.527549 
L 135.726012 89.648665 
L 138.533133 90.990085 
L 141.691144 92.752975 
L 144.849155 94.772335 
L 148.358052 97.299134 
L 151.866959 100.102174 
L 155.726741 103.474785 
L 159.937429 107.45819 
L 164.849889 112.440219 
L 170.46413 118.468848 
L 178.885486 127.891014 
L 189.763072 140.031533 
L 195.377313 145.975157 
L 200.289772 150.853382 
L 204.500461 154.72736 
L 208.360243 157.984328 
L 211.86915 160.670576 
L 215.378047 163.070567 
L 218.536058 164.968145 
L 221.694069 166.602913 
L 224.501184 167.825866 
L 227.30831 168.824905 
L 230.115425 169.594354 
L 232.922551 170.129842 
L 235.729666 170.42832 
L 238.536771 170.488105 
L 241.343897 170.308844 
L 244.151022 169.89156 
L 246.958127 169.238633 
L 249.765253 168.353757 
L 252.572378 167.241969 
L 255.379483 165.909592 
L 258.537494 164.156463 
L 261.695506 162.146354 
L 265.204423 159.629147 
L 268.71332 156.834931 
L 272.573102 153.471011 
L 276.783791 149.495809 
L 281.345344 144.887127 
L 286.959595 138.883569 
L 294.67918 130.269733 
L 306.960318 116.554087 
L 312.57457 110.624404 
L 317.487029 105.762866 
L 321.697697 101.906335 
L 325.5575 98.667622 
L 329.066397 95.999739 
L 332.575293 93.619633 
L 335.733304 91.741077 
L 338.891316 90.12626 
L 341.698441 88.921717 
L 344.505567 87.941606 
L 347.312672 87.191511 
L 350.119797 86.675675 
L 352.926923 86.397034 
L 355.734028 86.357181 
L 358.541154 86.556334 
L 361.348279 86.993362 
L 364.155405 87.665789 
L 366.96251 88.569773 
L 369.769635 89.700203 
L 372.576761 91.050648 
L 375.734772 92.82327 
L 378.892784 94.851874 
L 382.40168 97.388262 
L 385.910577 100.200059 
L 389.770359 103.581356 
L 393.981047 107.572888 
L 398.893507 112.56255 
L 404.507758 118.597322 
L 412.929115 128.023211 
L 413.28 128.419737 
L 413.28 128.419737 
" clip-path="url(#p020701541f)" style="fill: none; stroke: #2a788e; stroke-opacity: 0.8; stroke-width: 1.5; stroke-linecap: square"/>
   </g>
   <g id="line2d_35">
    <path d="M 62.39 128.419736 
L 73.618481 119.261092 
L 79.583611 114.681445 
L 84.49607 111.169293 
L 89.057642 108.175313 
L 93.268322 105.680092 
L 97.128112 103.647333 
L 100.637012 102.029691 
L 104.145911 100.646288 
L 107.654813 99.509405 
L 110.812824 98.705372 
L 113.97083 98.115002 
L 117.128841 97.742545 
L 120.286852 97.590674 
L 123.444863 97.660485 
L 126.602875 97.951471 
L 129.760881 98.461545 
L 132.918892 99.187037 
L 136.076903 100.122731 
L 139.585805 101.400692 
L 143.094701 102.918469 
L 146.954494 104.848889 
L 150.814281 107.032416 
L 155.024959 109.675501 
L 159.586534 112.807987 
L 164.849889 116.710064 
L 171.165901 121.693754 
L 181.341716 130.065652 
L 190.815749 137.763192 
L 196.780876 142.331194 
L 201.693335 145.83041 
L 206.254909 148.809879 
L 210.465587 151.289765 
L 214.32538 153.306999 
L 217.834277 154.909439 
L 221.343173 156.276766 
L 224.85208 157.396833 
L 228.010091 158.18522 
L 231.168103 158.759573 
L 234.326103 159.115765 
L 237.484115 159.251231 
L 240.642105 159.165003 
L 243.800116 158.857698 
L 246.958127 158.331521 
L 250.116138 157.590262 
L 253.625035 156.520915 
L 257.133953 155.202132 
L 260.642849 153.64564 
L 264.502631 151.675473 
L 268.362413 149.455577 
L 272.573102 146.777126 
L 277.134676 143.611939 
L 282.398021 139.679957 
L 288.714043 134.672261 
L 300.293411 125.13261 
L 308.714767 118.340851 
L 314.329018 114.077792 
L 319.241478 110.611519 
L 323.803052 107.668831 
L 328.013719 105.227722 
L 331.873522 103.249651 
L 335.382419 101.685464 
L 338.891316 100.358562 
L 342.400212 99.280732 
L 345.558223 98.531598 
L 348.716235 97.997382 
L 351.874246 97.681919 
L 355.032257 97.587478 
L 358.190268 97.714742 
L 361.348279 98.062795 
L 364.506291 98.629133 
L 367.664302 99.40969 
L 371.173198 100.521319 
L 374.682095 101.880585 
L 378.190992 103.475416 
L 382.050795 105.48486 
L 385.910577 107.740565 
L 390.121265 110.453727 
L 394.682839 113.65086 
L 399.946184 117.611749 
L 406.613092 122.927941 
L 413.28 128.419736 
L 413.28 128.419736 
" clip-path="url(#p020701541f)" style="fill: none; stroke: #414487; stroke-opacity: 0.8; stroke-width: 1.5; stroke-linecap: square"/>
   </g>
   <g id="line2d_36">
    <path d="M 62.39 128.419736 
L 118.883295 128.206877 
L 158.533867 128.30665 
L 246.958127 128.62653 
L 290.117606 128.455064 
L 353.628694 128.206678 
L 393.279277 128.310651 
L 413.28 128.419736 
L 413.28 128.419736 
" clip-path="url(#p020701541f)" style="fill: none; stroke: #440154; stroke-opacity: 0.8; stroke-width: 1.5; stroke-linecap: square"/>
   </g>
   <g id="patch_3">
    <path d="M 62.39 246.04 
L 62.39 10.8 
" style="fill: none; stroke: #000000; stroke-width: 0.8; stroke-linejoin: miter; stroke-linecap: square"/>
   </g>
   <g id="patch_4">
    <path d="M 413.28 246.04 
L 413.28 10.8 
" style="fill: none; stroke: #000000; stroke-width: 0.8; stroke-linejoin: miter; stroke-linecap: square"/>
   </g>
   <g id="patch_5">
    <path d="M 62.39 246.04 
L 413.28 246.04 
" style="fill: none; stroke: #000000; stroke-width: 0.8; stroke-linejoin: miter; stroke-linecap: square"/>
   </g>
   <g id="patch_6">
    <path d="M 62.39 10.8 
L 413.28 10.8 
" style="fill: none; stroke: #000000; stroke-width: 0.8; stroke-linejoin: miter; stroke-linecap: square"/>
   </g>
   <g id="legend_1">
    <g id="patch_7">
     <path d="M 69.39 241.04 
L 135.955625 241.04 
Q 137.955625 241.04 137.955625 239.04 
L 137.955625 151.97125 
Q 137.955625 149.97125 135.955625 149.97125 
L 69.39 149.97125 
Q 67.39 149.97125 67.39 151.97125 
L 67.39 239.04 
Q 67.39 241.04 69.39 241.04 
z
" style="fill: #ffffff; opacity: 0.8; stroke: #cccccc; stroke-linejoin: miter"/>
    </g>
    <g id="line2d_37">
     <path d="M 71.39 158.069687 
L 81.39 158.069687 
L 91.39 158.069687 
" style="fill: none; stroke: #fde725; stroke-opacity: 0.8; stroke-width: 1.5; stroke-linecap: square"/>
    </g>
    <g id="text_18">
     <!-- t=0.00 -->
     <g transform="translate(99.39 161.569687) scale(0.1 -0.1)">
      <defs>
       <path id="DejaVuSans-3d" d="M 678 2906 
L 4684 2906 
L 4684 2381 
L 678 2381 
L 678 2906 
z
M 678 1631 
L 4684 1631 
L 4684 1100 
L 678 1100 
L 678 1631 
z
" transform="scale(0.015625)"/>
      </defs>
      <use xlink:href="#DejaVuSans-74"/>
      <use xlink:href="#DejaVuSans-3d" x="39.208984"/>
      <use xlink:href="#DejaVuSans-30" x="122.998047"/>
      <use xlink:href="#DejaVuSans-2e" x="186.621094"/>
      <use xlink:href="#DejaVuSans-30" x="218.408203"/>
      <use xlink:href="#DejaVuSans-30" x="282.03125"/>
     </g>
    </g>
    <g id="line2d_38">
     <path d="M 71.39 172.747813 
L 81.39 172.747813 
L 91.39 172.747813 
" style="fill: none; stroke: #7ad151; stroke-opacity: 0.8; stroke-width: 1.5; stroke-linecap: square"/>
    </g>
    <g id="text_19">
     <!-- t=0.05 -->
     <g transform="translate(99.39 176.247813) scale(0.1 -0.1)">
      <use xlink:href="#DejaVuSans-74"/>
      <use xlink:href="#DejaVuSans-3d" x="39.208984"/>
      <use xlink:href="#DejaVuSans-30" x="122.998047"/>
      <use xlink:href="#DejaVuSans-2e" x="186.621094"/>
      <use xlink:href="#DejaVuSans-30" x="218.408203"/>
      <use xlink:href="#DejaVuSans-35" x="282.03125"/>
     </g>
    </g>
    <g id="line2d_39">
     <path d="M 71.39 187.425938 
L 81.39 187.425938 
L 91.39 187.425938 
" style="fill: none; stroke: #22a884; stroke-opacity: 0.8; stroke-width: 1.5; stroke-linecap: square"/>
    </g>
    <g id="text_20">
     <!-- t=0.10 -->
     <g transform="translate(99.39 190.925938) scale(0.1 -0.1)">
      <use xlink:href="#DejaVuSans-74"/>
      <use xlink:href="#DejaVuSans-3d" x="39.208984"/>
      <use xlink:href="#DejaVuSans-30" x="122.998047"/>
      <use xlink:href="#DejaVuSans-2e" x="186.621094"/>
      <use xlink:href="#DejaVuSans-31" x="218.408203"/>
      <use xlink:href="#DejaVuSans-30" x="282.03125"/>
     </g>
    </g>
    <g id="line2d_40">
     <path d="M 71.39 202.104062 
L 81.39 202.104062 
L 91.39 202.104062 
" style="fill: none; stroke: #2a788e; stroke-opacity: 0.8; stroke-width: 1.5; stroke-linecap: square"/>
    </g>
    <g id="text_21">
     <!-- t=0.15 -->
     <g transform="translate(99.39 205.604062) scale(0.1 -0.1)">
      <use xlink:href="#DejaVuSans-74"/>
      <use xlink:href="#DejaVuSans-3d" x="39.208984"/>
      <use xlink:href="#DejaVuSans-30" x="122.998047"/>
      <use xlink:href="#DejaVuSans-2e" x="186.621094"/>
      <use xlink:href="#DejaVuSans-31" x="218.408203"/>
      <use xlink:href="#DejaVuSans-35" x="282.03125"/>
     </g>
    </g>
    <g id="line2d_41">
     <path d="M 71.39 216.782188 
L 81.39 216.782188 
L 91.39 216.782188 
" style="fill: none; stroke: #414487; stroke-opacity: 0.8; stroke-width: 1.5; stroke-linecap: square"/>
    </g>
    <g id="text_22">
     <!-- t=0.20 -->
     <g transform="translate(99.39 220.282188) scale(0.1 -0.1)">
      <use xlink:href="#DejaVuSans-74"/>
      <use xlink:href="#DejaVuSans-3d" x="39.208984"/>
      <use xlink:href="#DejaVuSans-30" x="122.998047"/>
      <use xlink:href="#DejaVuSans-2e" x="186.621094"/>
      <use xlink:href="#DejaVuSans-32" x="218.408203"/>
      <use xlink:href="#DejaVuSans-30" x="282.03125"/>
     </g>
    </g>
    <g id="line2d_42">
     <path d="M 71.39 231.460312 
L 81.39 231.460312 
L 91.39 231.460312 
" style="fill: none; stroke: #440154; stroke-opacity: 0.8; stroke-width: 1.5; stroke-linecap: square"/>
    </g>
    <g id="text_23">
     <!-- t=1.00 -->
     <g transform="translate(99.39 234.960312) scale(0.1 -0.1)">
      <use xlink:href="#DejaVuSans-74"/>
      <use xlink:href="#DejaVuSans-3d" x="39.208984"/>
      <use xlink:href="#DejaVuSans-31" x="122.998047"/>
      <use xlink:href="#DejaVuSans-2e" x="186.621094"/>
      <use xlink:href="#DejaVuSans-30" x="218.408203"/>
      <use xlink:href="#DejaVuSans-30" x="282.03125"/>
     </g>
    </g>
   </g>
  </g>
 </g>
 <defs>
  <clipPath id="p020701541f">
   <rect x="62.39" y="10.8" width="350.89" height="235.24"/>
  </clipPath>
 </defs>
</svg>
